<svg width="14" height="15" viewBox="0 0 14 15" fill="none" xmlns="http://www.w3.org/2000/svg">
<path fill-rule="evenodd" clip-rule="evenodd" d="M6.77778 0C4.65929 0 2.88889 1.67301 2.88889 3.80118C2.88889 5.92936 4.65929 7.60237 6.77778 7.60237C8.89627 7.60237 10.6667 5.92936 10.6667 3.80118C10.6667 1.67301 8.89627 0 6.77778 0ZM4.88889 3.80118C4.88889 2.83525 5.70529 2 6.77778 2C7.85027 2 8.66667 2.83525 8.66667 3.80118C8.66667 4.76711 7.85027 5.60237 6.77778 5.60237C5.70529 5.60237 4.88889 4.76711 4.88889 3.80118ZM3.88889 8.40368C1.7704 8.40368 0 10.0767 0 12.2049V13.6055C0 14.1577 0.447715 14.6055 1 14.6055C1.55228 14.6055 2 14.1577 2 13.6055V12.2049C2 11.2389 2.8164 10.4037 3.88889 10.4037H9.66667C10.7392 10.4037 11.5556 11.2389 11.5556 12.2049V13.6055C11.5556 14.1577 12.0033 14.6055 12.5556 14.6055C13.1078 14.6055 13.5556 14.1577 13.5556 13.6055V12.2049C13.5556 10.0767 11.7852 8.40368 9.66667 8.40368H3.88889Z" fill="#3CE0A0"/>
</svg>
